:SAMPLES-PER-SECOND 30
:FULLY-SPECIFIED
:DEGREES
810
root  45.9116 38.4905 11.7821 176.748 -18.9225 177.336
RightUpLeg  18.4814 -31.5642 -16.6849
RightLeg  24.8399 -6.09004 -3.53015
RightFoot  -10.4759 -0.282905 25.4388
RightToes  5.23868e-010 0 -3.6325e-017
Spine  5.5282 2.34965 7.50313
Spine1  6.33942 4.88593 -11.216
HEad  -13.0011 9.79757 -8.99904
LeftShoulder1  -0.229363 4.13654 -30.1229
LeftArm  -2.51031 16.581 -38.2372
LeftForeArm  19.0586 -15.6516 -5.74469
LeftHand  -0.0182096 3.47228 -0.036921
RightShoulder  -0.579391 -5.17475 27.9259
RightArm  14.3173 -4.22808 51.0588
RightForeArm  5.91204 7.86146 7.91526
RightHand  -0.49095 0.967472 -9.11873
LeftUpLeg  -11.0747 3.67715 -8.55181
LeftLeg  13.086 19.8919 1.62215
LeftFoot  -0.727127 -1.21836 13.0949
LeftToes  -4.9204e-010 1.02043e-011 -1.81609e-011
811
root  45.6192 38.5077 10.9991 176.629 -20.0121 176.623
RightUpLeg  12.7966 -25.5754 -15.4285
RightLeg  35.5279 -6.66603 -5.28038
RightFoot  -3.26868 -1.49605 22.3266
RightToes  5.23868e-010 0 -3.6325e-017
Spine  6.27136 2.80623 7.10782
Spine1  5.66128 5.3603 -11.904
HEad  -12.1917 9.23951 -9.25299
LeftShoulder1  -0.246028 4.17885 -30.1974
LeftArm  -1.95287 17.0453 -38.5383
LeftForeArm  18.5527 -16.2037 -5.60022
LeftHand  0.00191035 3.39205 -1.21666
RightShoulder  -0.582647 -5.18579 27.8581
RightArm  17.5125 -4.20443 50.4769
RightForeArm  5.52983 9.12949 8.53842
RightHand  -0.497508 1.78539 -8.20353
LeftUpLeg  -9.25383 3.43571 -9.27467
LeftLeg  13.1591 19.4115 1.33742
LeftFoot  -1.96054 -1.07002 13.1185
LeftToes  -4.9204e-010 1.02043e-011 -1.81609e-011
812
root  45.419 38.5302 10.2218 176.582 -21.6539 175.909
RightUpLeg  6.81703 -20.1671 -14.3983
RightLeg  45.75 -3.76754 -4.39335
RightFoot  6.25025 -1.99163 12.7441
RightToes  5.23868e-010 0 -3.6325e-017
Spine  6.80205 2.87489 4.95665
Spine1  5.42328 4.98503 -10.4726
HEad  -12.7398 9.535 -9.80476
LeftShoulder1  -0.351454 4.44668 -31.159
LeftArm  -0.120263 17.1515 -38.0613
LeftForeArm  17.6424 -17.2136 -5.45532
LeftHand  0.0176183 2.91952 -1.68075
RightShoulder  -0.488581 -4.92929 27.4157
RightArm  20.1657 -3.33184 50.2433
RightForeArm  7.25342 10.77 8.53553
RightHand  -0.434337 1.09768 -7.91524
LeftUpLeg  -7.60335 3.40618 -9.98968
LeftLeg  13.4397 18.0603 1.20066
LeftFoot  -3.19175 -0.896339 12.7959
LeftToes  -4.9204e-010 1.02043e-011 -1.81609e-011
813
root  45.2717 38.4057 9.55919 176.559 -23.9373 175.201
RightUpLeg  1.85588 -15.2522 -13.3683
RightLeg  53.427 0.077089 -0.241923
RightFoot  8.71119 -1.88519 10.9772
RightToes  5.23868e-010 0 -3.6325e-017
Spine  7.59898 2.71474 2.95588
Spine1  5.55007 4.44516 -10.0355
HEad  -13.7015 10.113 -9.68363
LeftShoulder1  -0.246037 4.17011 -30.7967
LeftArm  0.810113 17.0401 -38.7437
LeftForeArm  17.7049 -17.6223 -5.40198
LeftHand  0.0161263 2.68992 -1.48011
RightShoulder  -0.573836 -5.15749 27.94
RightArm  21.5965 -1.75075 49.4845
RightForeArm  7.32724 12.1187 8.19482
RightHand  -0.442572 1.594 -7.52686
LeftUpLeg  -6.94566 3.63211 -10.7508
LeftLeg  15.4157 15.8633 1.47539
LeftFoot  -4.94137 -0.679282 12.6288
LeftToes  -4.9204e-010 1.02043e-011 -1.81609e-011
814
root  45.1317 38.3259 8.88773 176.321 -25.9334 174.819
RightUpLeg  -2.37294 -10.4691 -12.2905
RightLeg  58.7696 3.3326 5.42511
RightFoot  5.65338 -1.91321 12.9876
RightToes  5.23868e-010 0 -3.6325e-017
Spine  8.40255 2.59938 1.62579
Spine1  5.85327 4.06234 -9.9391
HEad  -14.2726 10.2414 -9.99964
LeftShoulder1  -0.206966 4.0693 -30.4775
LeftArm  2.34293 16.3837 -39.2629
LeftForeArm  18.0409 -18.008 -5.40729
LeftHand  -0.00205461 3.79951 -1.5642
RightShoulder  -0.566443 -5.14099 27.8242
RightArm  19.8354 -0.651671 49.6225
RightForeArm  6.14196 12.5753 7.65019
RightHand  -0.495058 1.48271 -8.54153
LeftUpLeg  -5.8738 3.86546 -11.0695
LeftLeg  16.7752 13.9538 1.61939
LeftFoot  -6.52124 -0.485983 12.4284
LeftToes  -4.9204e-010 1.02043e-011 -1.81609e-011
815
root  44.9653 38.3049 8.21769 175.988 -28.3962 174.943
RightUpLeg  -6.29634 -6.62641 -11.0783
RightLeg  61.6357 4.30012 8.04403
RightFoot  4.79666 -1.81217 12.9717
RightToes  5.23868e-010 0 -3.6325e-017
Spine  9.21109 2.28098 1.23367
Spine1  5.87464 3.63291 -10.1326
HEad  -14.6277 10.101 -9.13407
LeftShoulder1  -0.186429 4.0185 -30.0843
LeftArm  3.07535 15.4087 -39.9934
LeftForeArm  18.9717 -17.9497 -5.4962
LeftHand  -0.00658302 3.73748 -1.02436
RightShoulder  -0.525256 -5.03121 27.5815
RightArm  16.8516 -0.16303 49.6966
RightForeArm  3.06497 12.9441 6.99623
RightHand  -0.611218 3.18322 -8.50761
LeftUpLeg  -4.76739 4.32438 -10.8579
LeftLeg  17.9264 11.2455 1.48825
LeftFoot  -7.93431 -0.31689 12.2189
LeftToes  -4.9204e-010 1.02043e-011 -1.81609e-011
816
root  44.7567 38.358 7.51872 175.863 -30.934 175.248
RightUpLeg  -9.98117 -3.3952 -10.0395
RightLeg  61.8915 3.15819 5.90582
RightFoot  3.8388 -1.66721 12.6627
RightToes  5.23868e-010 0 -3.6325e-017
Spine  9.50163 1.92675 0.981161
Spine1  5.96685 3.20854 -9.91639
HEad  -14.5916 10.302 -8.50016
LeftShoulder1  -0.0983183 3.77623 -29.9563
LeftArm  3.79682 15.0548 -40.4573
LeftForeArm  18.9739 -18.8659 -5.1276
LeftHand  0.00132009 3.64639 -1.39645
RightShoulder  -0.558065 -5.14262 27.2725
RightArm  15.6864 0.37724 49.5519
RightForeArm  -0.77827 13.8257 6.56454
RightHand  -0.612787 2.43098 -9.27767
LeftUpLeg  -3.42006 4.58319 -10.3625
LeftLeg  18.0627 8.54867 0.978855
LeftFoot  -8.87144 -0.207887 12.083
LeftToes  -4.9204e-010 1.02043e-011 -1.81609e-011
817
root  44.5054 38.4478 6.81239 175.695 -33.7901 175.873
RightUpLeg  -13.1592 -1.23226 -9.3023
RightLeg  59.8362 1.69166 2.70965
RightFoot  3.46304 -1.29501 10.1151
RightToes  5.23868e-010 0 -3.6325e-017
Spine  9.66061 1.45707 1.29139
Spine1  5.85666 2.76527 -9.62646
HEad  -14.766 9.34821 -8.094
LeftShoulder1  -0.0697269 3.69768 -29.8326
LeftArm  3.8158 14.6033 -40.8747
LeftForeArm  18.8129 -19.5712 -4.82022
LeftHand  0.0302708 2.95387 -2.29635
RightShoulder  -0.600957 -5.26437 27.3928
RightArm  15.1657 0.693975 48.6839
RightForeArm  -2.01669 14.9446 6.09731
RightHand  -0.620505 2.9861 -8.85645
LeftUpLeg  -1.94651 4.76799 -9.54918
LeftLeg  17.7402 5.41688 0.39168
LeftFoot  -9.63266 -0.122656 12.0934
LeftToes  -4.9204e-010 1.02043e-011 -1.81609e-011
818
root  44.2669 38.5184 6.09195 175.496 -36.9182 176.248
RightUpLeg  -15.2701 0.505634 -9.14462
RightLeg  55.4783 0.112794 -0.233085
RightFoot  2.19134 -1.0322 8.82319
RightToes  5.23868e-010 0 -3.6325e-017
Spine  10.1557 1.09016 0.583829
Spine1  5.63404 2.11375 -8.09418
HEad  -15.0033 8.51924 -8.12535
LeftShoulder1  -0.0967587 3.77224 -29.9058
LeftArm  4.8656 14.2838 -41.1567
LeftForeArm  17.3742 -20.8436 -4.48212
LeftHand  0.00434632 3.21807 -1.27015
RightShoulder  -0.552763 -5.14155 26.979
RightArm  15.3927 0.707052 47.9676
RightForeArm  -2.34922 16.1447 5.74985
RightHand  -0.622723 4.02059 -7.94327
LeftUpLeg  -0.211362 4.97972 -8.7575
LeftLeg  17.1585 2.2121 -0.328786
LeftFoot  -10.4098 -0.0362978 12.0606
LeftToes  -4.9204e-010 1.02043e-011 -1.81609e-011
819
root  43.9935 38.5571 5.36109 175.772 -39.7603 176.476
RightUpLeg  -16.9132 1.61348 -9.54844
RightLeg  48.86 -0.806651 -1.33032
RightFoot  0.89167 -0.960795 9.00522
RightToes  5.23868e-010 0 -3.6325e-017
Spine  10.5425 0.68718 0.932341
Spine1  4.88386 1.87142 -8.25384
HEad  -15.2664 7.49916 -7.04836
LeftShoulder1  -0.0257983 3.5758 -29.6628
LeftArm  5.92389 14.5411 -40.8666
LeftForeArm  16.1594 -22.4002 -4.19082
LeftHand  -0.0123226 3.04737 -0.196216
RightShoulder  -0.536806 -5.08424 27.1709
RightArm  16.1214 0.275936 47.1663
RightForeArm  -1.9808 17.1449 5.53461
RightHand  -0.626694 3.05526 -8.82569
LeftUpLeg  0.82458 5.04961 -8.08845
LeftLeg  17.0792 -0.632705 -0.819368
LeftFoot  -11.3383 0.0687392 11.7021
LeftToes  -4.9204e-010 1.02043e-011 -1.81609e-011
820
root  43.642 38.5838 4.57996 175.811 -42.1445 176.641
RightUpLeg  -17.1998 2.64333 -10.0198
RightLeg  39.9811 -1.14208 -1.30141
RightFoot  0.587272 -0.961693 9.22468
RightToes  5.23868e-010 0 -3.6325e-017
Spine  10.3303 0.673757 1.41073
Spine1  5.31961 2.03972 -8.20883
HEad  -15.7398 6.35059 -6.42052
LeftShoulder1  0.0135919 3.4656 -29.5449
LeftArm  5.60682 14.0874 -40.8948
LeftForeArm  16.2091 -23.1696 -4.16948
LeftHand  -0.0160644 3.08478 -0.080963
RightShoulder  -0.514411 -5.0229 27.046
RightArm  16.4263 0.0451601 46.4781
RightForeArm  -1.55983 17.242 5.51439
RightHand  -0.615718 2.88309 -8.86054
LeftUpLeg  2.41247 5.44061 -7.23655
LeftLeg  16.7187 -3.41089 -1.49838
LeftFoot  -12.1457 0.157921 12.0283
LeftToes  -4.9204e-010 1.02043e-011 -1.81609e-011
821
root  43.257 38.5853 3.78608 176.656 -44.3534 176.309
RightUpLeg  -17.1751 2.44608 -10.912
RightLeg  29.7092 -0.70715 -0.622957
RightFoot  0.618617 -1.00248 9.58774
RightToes  5.23868e-010 0 -3.6325e-017
Spine  10.0363 0.623654 1.75065
Spine1  5.12063 2.18264 -8.30409
HEad  -15.6247 5.65364 -6.39317
LeftShoulder1  -0.0236739 3.56963 -29.6839
LeftArm  5.49326 13.9111 -40.3336
LeftForeArm  15.8959 -23.9268 -4.27769
LeftHand  -0.0264779 2.41286 0.55687
RightShoulder  -0.513662 -5.02115 27.0262
RightArm  16.6672 -0.385465 46.1541
RightForeArm  -1.58745 16.6111 5.721
RightHand  -0.628525 2.55307 -9.38832
LeftUpLeg  3.51218 5.54889 -6.72392
LeftLeg  16.3595 -5.99083 -2.1425
LeftFoot  -12.9709 0.250477 12.058
LeftToes  -4.9204e-010 1.02043e-011 -1.81609e-011
822
root  42.8167 38.5606 2.96101 177.815 -46.4661 175.779
RightUpLeg  -16.3208 0.759165 -11.527
RightLeg  18.1645 1.65493 0.0980179
RightFoot  0.907486 -1.09706 10.2576
RightToes  5.23868e-010 0 -3.6325e-017
Spine  9.35466 0.604793 2.41639
Spine1  5.22498 2.46789 -8.82936
HEad  -15.5157 5.10967 -6.2601
LeftShoulder1  0.00138984 3.5003 -29.32
LeftArm  4.41565 13.9815 -40.172
LeftForeArm  16.5457 -24.3372 -4.33648
LeftHand  -0.0154122 2.26383 0.104496
RightShoulder  -0.557918 -5.13744 27.3827
RightArm  16.2234 -0.770349 45.7609
RightForeArm  -0.716231 15.3643 6.0145
RightHand  -0.622957 3.07827 -8.75875
LeftUpLeg  4.56575 5.6266 -6.29476
LeftLeg  15.8537 -8.28041 -2.64565
LeftFoot  -13.8181 0.342135 11.9341
LeftToes  -4.9204e-010 1.02043e-011 -1.81609e-011
